<svg aria-hidden="true" style="position: absolute; width: 0; height: 0; overflow: hidden;" version="1.1" xmlns="http://www.w3.org/2000/svg" xmlns:xlink="http://www.w3.org/1999/xlink">
<defs>
<symbol id="icon-logo-hero-text" viewBox="0 0 247 32">
<path fill="#fff" style="fill: var(--color1, #fff)" d="M5.412 31.019c-2.25-0.649-4.043-1.494-5.412-2.52l2.387-5.253c1.308 0.951 2.858 1.706 4.651 2.279s3.588 0.86 5.382 0.86c1.991 0 3.481-0.302 4.424-0.89 0.958-0.589 1.429-1.374 1.429-2.355 0-0.725-0.289-1.313-0.851-1.796-0.563-0.468-1.292-0.86-2.174-1.147s-2.083-0.604-3.588-0.951c-2.311-0.543-4.211-1.086-5.685-1.645-1.474-0.544-2.736-1.419-3.8-2.626s-1.581-2.823-1.581-4.83c0-1.751 0.471-3.336 1.429-4.77 0.958-1.419 2.402-2.551 4.317-3.381 1.946-0.8 4.302-1.223 7.084-1.223 1.946 0 3.831 0.226 5.685 0.695 1.854 0.453 3.481 1.117 4.864 1.977l-2.174 5.313c-2.812-1.585-5.625-2.37-8.422-2.37-1.976 0-3.42 0.317-4.363 0.951s-1.414 1.465-1.414 2.506 0.547 1.811 1.626 2.31c1.079 0.498 2.736 0.996 4.971 1.494 2.311 0.544 4.211 1.087 5.685 1.645 1.475 0.543 2.736 1.404 3.8 2.581s1.581 2.777 1.581 4.785c0 1.721-0.487 3.306-1.459 4.725s-2.432 2.551-4.363 3.381c-1.946 0.83-4.302 1.252-7.084 1.252-2.387-0.015-4.712-0.347-6.947-0.996zM48.34 16.543c1.414 1.54 2.128 3.442 2.128 5.721 0 1.751-0.456 3.366-1.383 4.846s-2.341 2.671-4.241 3.562c-1.9 0.89-4.226 1.343-6.977 1.343-2.25-0.001-4.428-0.31-6.494-0.886l0.17 0.040c-2.067-0.558-3.831-1.358-5.275-2.4l2.736-5.343c1.156 0.86 2.493 1.525 4.013 2.007 1.395 0.449 3.001 0.709 4.666 0.71h0c1.764 0 3.162-0.332 4.165-1.011 1.018-0.679 1.52-1.63 1.52-2.868 0-2.475-1.9-3.713-5.685-3.713h-3.208v-4.619l6.263-7.034h-12.936v-5.6h21.282v4.528l-6.871 7.759c2.66 0.423 4.697 1.419 6.126 2.958zM67.828 3.004c-0.35-0.332-0.517-0.74-0.517-1.223s0.167-0.905 0.517-1.252c0.35-0.348 0.76-0.514 1.262-0.514 0.486 0 0.912 0.166 1.262 0.498s0.517 0.74 0.517 1.223c0 0.483-0.167 0.905-0.517 1.253s-0.76 0.513-1.262 0.513c-0.486-0.015-0.912-0.181-1.262-0.498zM68.010 8.966h2.174v22.506h-2.174v-22.506zM97.136 11.26c1.657 1.645 2.478 4 2.478 7.080v13.146h-2.174v-12.981c0-2.536-0.639-4.453-1.931-5.781s-3.086-1.977-5.412-1.977c-2.66 0-4.758 0.785-6.293 2.37s-2.296 3.714-2.296 6.385v11.985h-2.174v-22.521h2.083v4.875c0.775-1.585 1.946-2.823 3.496-3.713s3.375-1.343 5.487-1.343c2.843 0.015 5.092 0.83 6.734 2.475zM126.368 11.26c1.657 1.645 2.478 4 2.478 7.080v13.146h-2.174v-12.981c0-2.536-0.638-4.453-1.931-5.781s-3.086-1.977-5.412-1.977c-2.66 0-4.758 0.785-6.293 2.37s-2.295 3.714-2.295 6.385v11.985h-2.174v-22.521h2.082v4.875c0.775-1.585 1.946-2.823 3.496-3.713s3.375-1.343 5.488-1.343c2.842 0.015 5.092 0.83 6.734 2.475zM140.9 30.189c-1.718-0.981-3.070-2.34-4.058-4.075s-1.475-3.698-1.475-5.887c0-2.189 0.487-4.151 1.475-5.886s2.341-3.095 4.058-4.076c1.718-0.981 3.648-1.464 5.792-1.464s4.074 0.483 5.792 1.464 3.070 2.34 4.058 4.075c0.988 1.736 1.475 3.698 1.475 5.887s-0.487 4.151-1.475 5.887-2.341 3.094-4.058 4.075c-1.718 0.981-3.648 1.464-5.792 1.464s-4.074-0.498-5.792-1.464zM151.358 28.498c1.368-0.8 2.463-1.932 3.253-3.366s1.201-3.079 1.201-4.921-0.395-3.472-1.201-4.921c-0.791-1.434-1.885-2.551-3.253-3.366-1.368-0.8-2.934-1.208-4.666-1.208s-3.299 0.408-4.667 1.208-2.463 1.932-3.253 3.366c-0.79 1.434-1.201 3.079-1.201 4.921s0.395 3.472 1.201 4.921c0.791 1.434 1.885 2.566 3.253 3.366s2.934 1.207 4.667 1.207c1.733 0 3.298-0.392 4.666-1.207zM182.308 8.966l-10.246 22.506h-2.219l-10.2-22.506h2.295l9.030 20.136 9.121-20.136h2.219zM200.459 10.928c1.505 1.419 2.265 3.517 2.265 6.279v14.279h-2.083v-4.015c-0.73 1.329-1.779 2.355-3.177 3.079-1.383 0.74-3.055 1.102-5.001 1.102-2.523 0-4.515-0.589-5.974-1.766s-2.189-2.732-2.189-4.664c0-1.872 0.669-3.381 2.022-4.544s3.496-1.751 6.445-1.751h7.768v-1.811c0-2.098-0.578-3.698-1.718-4.785s-2.812-1.645-5.017-1.645c-1.505 0-2.949 0.257-4.317 0.77s-2.539 1.208-3.496 2.068l-1.079-1.555c1.125-1.011 2.493-1.796 4.089-2.355 1.478-0.536 3.185-0.845 4.964-0.845 0.013 0 0.026 0 0.039 0h-0.002c2.797 0.030 4.956 0.74 6.461 2.159zM197.57 28.589c1.322-0.86 2.31-2.114 2.979-3.759v-4.226h-7.737c-2.234 0-3.846 0.408-4.849 1.208s-1.505 1.917-1.505 3.32c0 1.464 0.547 2.626 1.657 3.472 1.095 0.845 2.645 1.268 4.652 1.268 1.885 0.015 3.481-0.423 4.804-1.283zM222.911 30.053c-0.548 0.514-1.231 0.906-2.067 1.193-0.762 0.258-1.639 0.407-2.551 0.407-0.012 0-0.023-0-0.035-0h0.002c-1.976 0-3.496-0.543-4.56-1.615s-1.611-2.581-1.611-4.513v-14.702h-4.165v-1.857h4.165v-4.905h2.174v4.92h7.205v1.857h-7.205v14.491c0 1.464 0.35 2.581 1.064 3.335s1.763 1.147 3.147 1.147c1.414 0 2.584-0.423 3.511-1.253l0.928 1.494zM247.263 20.74h-19.503c0.061 1.751 0.502 3.321 1.353 4.679 0.836 1.359 1.976 2.415 3.405 3.17s3.040 1.117 4.849 1.117c1.475 0 2.843-0.272 4.104-0.8s2.311-1.314 3.147-2.355l1.262 1.418c-0.988 1.177-2.219 2.083-3.709 2.717s-3.101 0.951-4.849 0.951c-2.265 0-4.271-0.483-6.035-1.464s-3.147-2.325-4.15-4.060c-1.003-1.721-1.505-3.698-1.505-5.902 0-2.189 0.471-4.151 1.414-5.886s2.234-3.095 3.891-4.075c1.657-0.981 3.496-1.464 5.564-1.464 2.052 0 3.907 0.483 5.533 1.449 1.642 0.966 2.919 2.309 3.861 4.030s1.414 3.684 1.414 5.872l-0.045 0.604zM232.199 11.744c-1.277 0.709-2.295 1.69-3.055 2.973s-1.216 2.717-1.323 4.332h17.375c-0.091-1.615-0.517-3.049-1.308-4.317-0.775-1.268-1.809-2.249-3.086-2.974s-2.706-1.072-4.302-1.072-3.025 0.362-4.302 1.057z"></path>
</symbol>
<symbol id="icon-quotes" viewBox="0 0 29 32">
<path fill="#fff" style="fill: var(--color1, #fff)" d="M24.44 6.128l0-0.006c0-2.629-2.132-4.761-4.761-4.761s-4.761 2.132-4.761 4.761c0 2.63 2.132 4.761 4.761 4.761 0.54 0 1.058-0.094 1.542-0.26-1.071 6.144-5.863 10.107-1.421 6.846 4.925-3.617 4.646-11.202 4.64-11.34zM9.205 10.883c0.54 0 1.058-0.094 1.542-0.26-1.072 6.144-5.863 10.107-1.421 6.846 4.926-3.617 4.646-11.202 4.64-11.34l0-0.006c0-2.629-2.131-4.761-4.761-4.761s-4.761 2.132-4.761 4.761c0 2.63 2.132 4.761 4.761 4.761z"></path>
</symbol>
<symbol id="icon-line" viewBox="0 0 4192 32">
<path fill="#2874a6" style="fill: var(--color2, #2874a6)" d="M4192 16c0 8.837-7.163 16-16 16h-4160c-8.837 0-16-7.163-16-16s7.163-16 16-16h4160c8.837 0 16 7.163 16 16z"></path>
</symbol>
<symbol id="icon-close-menu" viewBox="0 0 32 32">
<path fill="#1b4f72" style="fill: var(--color3, #1b4f72)" d="M28.241 23.746l-21.1-21.1c-0.609-0.608-1.45-0.984-2.379-0.984s-1.771 0.377-2.381 0.985l0-0c-0.608 0.609-0.985 1.451-0.985 2.38s0.376 1.771 0.985 2.38l21.1 21.1c0.609 0.608 1.451 0.984 2.379 0.984s1.77-0.376 2.38-0.984l-0 0c0.609-0.61 0.986-1.452 0.986-2.382s-0.376-1.771-0.985-2.38l0 0z"></path>
<path fill="#1b4f72" style="fill: var(--color3, #1b4f72)" d="M2.453 23.48l21.097-21.1c0.61-0.609 1.451-0.985 2.381-0.985s1.771 0.377 2.381 0.985l-0-0c0.608 0.609 0.985 1.451 0.985 2.38s-0.376 1.771-0.985 2.38l-21.099 21.1c-0.609 0.608-1.451 0.985-2.38 0.985s-1.771-0.376-2.38-0.985l0 0c-0.608-0.609-0.985-1.451-0.985-2.38s0.376-1.771 0.985-2.38l-0 0z"></path>
</symbol>
<symbol id="icon-burger-menu" viewBox="0 0 32 32">
<path fill="#1b4f72" style="fill: var(--color3, #1b4f72)" d="M29.055 4.017h-26.108c-1.627 0-2.947 1.32-2.947 2.947 0 1.623 1.32 2.943 2.945 2.943h26.108c1.624 0 2.945-1.32 2.945-2.944 0-1.627-1.32-2.947-2.945-2.947zM29.055 13.053h-26.108c-1.627 0-2.947 1.323-2.947 2.947s1.32 2.947 2.945 2.947h26.108c1.627 0 2.947-1.324 2.947-2.947 0-1.625-1.32-2.947-2.945-2.947zM29.055 22.092h-26.108c-1.624 0-2.945 1.32-2.945 2.947 0 1.624 1.32 2.945 2.945 2.945h26.107c1.624 0 2.945-1.321 2.945-2.945 0-1.627-1.32-2.947-2.945-2.947z"></path>
</symbol>
<symbol id="icon-linkedin" viewBox="0 0 32 32">
<path fill="#fff" style="fill: var(--color1, #fff)" d="M29.692 0h-27.382c-1.276 0-2.31 1.034-2.31 2.308v27.382c0 1.276 1.034 2.31 2.308 2.31h27.382c1.274 0 2.308-1.034 2.308-2.308v-27.382c0.001-1.276-1.032-2.31-2.307-2.31zM11.35 24.188h-3.896v-11.723h3.896v11.723zM9.402 10.863h-0.025c-1.308 0-2.154-0.9-2.154-2.026 0-1.149 0.871-2.026 2.205-2.026 1.333 0 2.152 0.877 2.177 2.026 0 1.126-0.845 2.026-2.204 2.026zM25.402 24.188h-3.897v-6.272c0-1.576-0.565-2.65-1.976-2.65-1.075 0-1.717 0.723-1.998 1.425-0.103 0.25-0.128 0.6-0.128 0.95v6.547h-3.896s0.050-10.624 0-11.723h3.896v1.66c0.518-0.8 1.444-1.935 3.512-1.935 2.563 0 4.486 1.675 4.486 5.276v6.723z"></path>
</symbol>
<symbol id="icon-facebook" viewBox="0 0 32 32">
<path fill="#fff" style="fill: var(--color1, #fff)" d="M27.311 0h-22.623c-2.589 0.002-4.686 2.1-4.689 4.688v22.623c0.002 2.589 2.1 4.686 4.688 4.689h9.436v-11.311h-3.75v-5.626h3.75v-3.812c0.003-3.105 2.52-5.622 5.625-5.625h5.688v5.625h-5.688v3.812h5.688l-0.938 5.625h-4.75v11.313h7.563c2.588-0.003 4.685-2.101 4.687-4.688v-22.623c-0.002-2.589-2.1-4.686-4.688-4.689h-0z"></path>
</symbol>
<symbol id="icon-twitter" viewBox="0 0 32 32">
<path fill="#fff" style="fill: var(--color1, #fff)" d="M29.692 0h-27.382c-1.276 0-2.31 1.034-2.31 2.308v27.382c0 1.276 1.034 2.31 2.308 2.31h27.382c1.274 0 2.308-1.034 2.308-2.308v-27.382c0.001-1.276-1.032-2.31-2.307-2.31zM23.306 12.474c0.007 0.159 0.010 0.316 0.010 0.476 0 4.853-3.694 10.449-10.449 10.449-0.003 0-0.006 0-0.010 0-2.088 0-4.031-0.615-5.66-1.675l0.040 0.025c0.266 0.034 0.574 0.054 0.887 0.054 1.724 0 3.31-0.592 4.566-1.585l-0.015 0.012c-1.601-0.031-2.948-1.080-3.424-2.526l-0.007-0.026c0.209 0.042 0.449 0.067 0.695 0.067 0.343 0 0.675-0.047 0.989-0.135l-0.026 0.006c-1.691-0.351-2.944-1.829-2.944-3.6 0-0.016 0-0.033 0-0.049l-0 0.002c0.495 0.275 1.062 0.441 1.664 0.459-0.993-0.667-1.637-1.786-1.637-3.055 0-0.681 0.185-1.318 0.509-1.865l-0.009 0.017c1.819 2.226 4.511 3.68 7.545 3.836l0.025 0.001c-0.062-0.252-0.097-0.542-0.097-0.84 0-2.029 1.644-3.673 3.673-3.673 1.057 0 2.010 0.447 2.68 1.162l0.002 0.002c0.879-0.177 1.661-0.486 2.365-0.909l-0.033 0.019c-0.285 0.865-0.855 1.571-1.598 2.022l-0.016 0.009c0.782-0.095 1.494-0.299 2.154-0.597l-0.046 0.019c-0.491 0.736-1.113 1.383-1.831 1.901z"></path>
</symbol>
<symbol id="icon-logo-footer" viewBox="0 0 42 32">
<path fill="#fff" style="fill: var(--color1, #fff)" d="M29.635 5.027l-8.709 5.027-1.753-1.004 6.969-4.023-1.753-1.004-6.969 4.021-5.26-3.017 8.709-5.027 1.753 1.006-6.966 4.021 1.753 1.006 6.966-4.023 5.26 3.017zM20.404 10.963l-0.005 2.002-7.013-4.023-0.005 2.003 7.013 4.021-0.018 6.002-8.766-5.027 0.005-2 7.013 4.020 0.008-2-7.015-4.023 0.018-6.002 8.766 5.027zM30.307 5.954l0.005 2-7.013 4.020 0.005 2.002 7.015-4.022 0.016 6.005-8.766 5.027-0.005-2.002 7.013-4.021-0.005-2.003-7.013 4.023-0.018-6.002 8.766-5.027zM0.918 31.836c-0.382-0.109-0.686-0.253-0.918-0.427l0.405-0.894c0.222 0.161 0.485 0.29 0.789 0.387 0.272 0.092 0.586 0.145 0.912 0.146h0.001c0.338 0 0.591-0.051 0.75-0.151 0.163-0.099 0.242-0.233 0.242-0.399 0-0.001 0-0.003 0-0.005 0-0.121-0.056-0.229-0.143-0.3l-0.001-0.001c-0.104-0.084-0.227-0.151-0.361-0.192l-0.008-0.002c-0.147-0.049-0.351-0.105-0.558-0.152l-0.051-0.010c-0.392-0.092-0.714-0.184-0.964-0.279-0.257-0.096-0.473-0.249-0.643-0.444l-0.002-0.002c-0.181-0.205-0.268-0.479-0.268-0.819 0-0.297 0.080-0.566 0.242-0.809 0.163-0.241 0.407-0.433 0.732-0.574 0.327-0.141 0.725-0.212 1.197-0.212 0.004 0 0.008-0 0.012-0 0.338 0 0.666 0.043 0.979 0.124l-0.027-0.006c0.312 0.074 0.588 0.189 0.837 0.343l-0.012-0.007-0.369 0.899c-0.477-0.269-0.954-0.402-1.428-0.402-0.335 0-0.58 0.054-0.74 0.162s-0.24 0.248-0.24 0.425c0 0.176 0.093 0.307 0.276 0.392s0.464 0.169 0.843 0.253c0.392 0.092 0.714 0.184 0.964 0.279 0.256 0.096 0.472 0.245 0.643 0.437l0.001 0.002c0.181 0.2 0.268 0.471 0.268 0.812 0 0.292-0.082 0.561-0.247 0.802s-0.413 0.432-0.74 0.573c-0.33 0.141-0.73 0.213-1.202 0.213-0.016 0-0.035 0-0.054 0-0.399 0-0.784-0.058-1.147-0.166l0.028 0.007zM8.199 29.378c0.24 0.261 0.361 0.584 0.361 0.97 0 0.297-0.078 0.571-0.235 0.822s-0.397 0.453-0.719 0.605c-0.323 0.151-0.717 0.228-1.184 0.228-0.363 0-0.722-0.049-1.072-0.144s-0.65-0.23-0.895-0.407l0.464-0.906c0.196 0.146 0.423 0.259 0.681 0.341 0.237 0.076 0.509 0.12 0.791 0.12h0c0.299 0 0.536-0.056 0.707-0.172 0.173-0.115 0.258-0.277 0.258-0.486 0-0.42-0.322-0.63-0.964-0.63h-0.544v-0.784l1.059-1.194h-2.193v-0.95h3.61v0.768l-1.163 1.316c0.451 0.074 0.797 0.241 1.039 0.502zM11.504 27.081c-0.054-0.050-0.088-0.122-0.088-0.201 0-0.002 0-0.005 0-0.007v0c0-0.082 0.029-0.154 0.088-0.212 0.053-0.054 0.126-0.087 0.207-0.087 0.002 0 0.005 0 0.007 0h-0c0.082 0 0.154 0.028 0.214 0.085s0.088 0.125 0.088 0.208c0 0.082-0.029 0.154-0.088 0.212-0.053 0.054-0.126 0.087-0.207 0.087-0.002 0-0.005-0-0.007-0h0c-0.002 0-0.003 0-0.005 0-0.081 0-0.155-0.032-0.209-0.084l0 0zM11.535 28.092h0.369v3.818h-0.369v-3.818zM16.475 28.481c0.281 0.279 0.42 0.679 0.42 1.201v2.23h-0.369v-2.202c0-0.43-0.108-0.755-0.327-0.981s-0.523-0.335-0.918-0.335c-0.451 0-0.807 0.133-1.067 0.402s-0.389 0.63-0.389 1.083v2.033h-0.369v-3.821h0.353v0.827c0.132-0.268 0.335-0.483 0.586-0.626l0.007-0.004c0.263-0.151 0.573-0.228 0.931-0.228 0.482 0.003 0.864 0.141 1.142 0.419zM21.433 28.481c0.281 0.279 0.42 0.679 0.42 1.201v2.23h-0.368v-2.202c0-0.43-0.108-0.755-0.328-0.981s-0.523-0.335-0.918-0.335c-0.451 0-0.807 0.133-1.068 0.402s-0.389 0.63-0.389 1.083v2.033h-0.368v-3.821h0.353v0.827c0.132-0.268 0.336-0.483 0.586-0.626l0.007-0.004c0.263-0.151 0.572-0.228 0.931-0.228 0.482 0.003 0.864 0.141 1.142 0.419zM23.898 31.693c-0.29-0.166-0.523-0.401-0.684-0.683l-0.005-0.009c-0.167-0.294-0.25-0.627-0.25-0.999s0.082-0.704 0.25-0.998c0.165-0.291 0.399-0.525 0.68-0.687l0.009-0.005c0.291-0.166 0.619-0.248 0.983-0.248s0.691 0.082 0.982 0.248c0.29 0.166 0.523 0.401 0.684 0.683l0.005 0.009c0.168 0.294 0.25 0.627 0.25 0.998s-0.083 0.704-0.25 0.999c-0.165 0.29-0.399 0.525-0.68 0.686l-0.009 0.005c-0.291 0.166-0.618 0.249-0.982 0.249s-0.691-0.082-0.983-0.249zM25.672 31.408c0.233-0.138 0.421-0.332 0.548-0.563l0.004-0.008c0.134-0.243 0.204-0.523 0.204-0.835s-0.067-0.589-0.203-0.835c-0.134-0.243-0.32-0.433-0.552-0.571-0.221-0.129-0.486-0.205-0.769-0.205-0.008 0-0.016 0-0.024 0h0.001c-0.294 0-0.56 0.069-0.791 0.205-0.234 0.138-0.421 0.332-0.548 0.563l-0.004 0.008c-0.134 0.243-0.203 0.522-0.203 0.835s0.067 0.589 0.203 0.835c0.131 0.239 0.318 0.433 0.545 0.567l0.007 0.004c0.221 0.129 0.486 0.206 0.77 0.206 0.008 0 0.015-0 0.023-0h-0.001c0.294 0 0.56-0.069 0.792-0.205zM30.921 28.092l-1.738 3.818h-0.376l-1.73-3.818h0.389l1.532 3.416 1.547-3.416h0.376zM34 28.425c0.255 0.24 0.384 0.597 0.384 1.065v2.422h-0.353v-0.681c-0.124 0.225-0.309 0.405-0.532 0.519l-0.007 0.003c-0.235 0.125-0.519 0.187-0.848 0.187-0.428 0-0.765-0.099-1.013-0.299s-0.371-0.464-0.371-0.791c0-0.318 0.114-0.574 0.343-0.771s0.593-0.297 1.093-0.297h1.318v-0.307c0-0.356-0.098-0.627-0.291-0.812s-0.477-0.279-0.851-0.279c-0.255 0-0.5 0.043-0.733 0.131-0.229 0.084-0.425 0.203-0.594 0.352l0.002-0.002-0.183-0.264c0.195-0.172 0.426-0.308 0.679-0.395l0.014-0.004c0.251-0.091 0.54-0.143 0.841-0.143 0.002 0 0.005 0 0.007 0h-0c0.474 0.005 0.841 0.125 1.096 0.366zM33.51 31.421c0.225-0.146 0.392-0.358 0.505-0.637v-0.717h-1.312c-0.379 0-0.652 0.069-0.823 0.205s-0.255 0.325-0.255 0.563c0 0.249 0.093 0.445 0.281 0.589 0.186 0.144 0.448 0.215 0.789 0.215 0.32 0.003 0.591-0.072 0.815-0.218zM37.808 31.67c-0.097 0.089-0.214 0.158-0.344 0.2l-0.007 0.002c-0.139 0.046-0.286 0.069-0.438 0.069-0.335 0-0.593-0.093-0.774-0.274s-0.273-0.438-0.273-0.765v-2.494h-0.706v-0.315h0.706v-0.835h0.369v0.835h1.222v0.315h-1.222v2.458c0 0.249 0.059 0.438 0.18 0.567s0.299 0.195 0.534 0.195c0.24 0 0.438-0.072 0.595-0.213l0.157 0.256zM41.938 30.090h-3.308c0.010 0.297 0.085 0.563 0.23 0.794 0.142 0.23 0.335 0.41 0.578 0.538s0.515 0.19 0.822 0.19c0.25 0 0.482-0.046 0.696-0.136s0.394-0.226 0.532-0.397l0.002-0.003 0.214 0.24c-0.168 0.2-0.377 0.354-0.629 0.461-0.237 0.102-0.513 0.162-0.803 0.162-0.007 0-0.013-0-0.020-0h0.001c-0.384 0-0.725-0.082-1.024-0.249-0.296-0.164-0.535-0.398-0.699-0.68l-0.005-0.009c-0.17-0.292-0.255-0.627-0.255-1.001 0-0.372 0.080-0.704 0.24-0.999 0.156-0.289 0.38-0.524 0.652-0.687l0.008-0.004c0.281-0.166 0.592-0.248 0.944-0.248 0.348 0 0.663 0.082 0.938 0.246 0.278 0.166 0.5 0.398 0.65 0.674l0.005 0.009c0.16 0.292 0.24 0.625 0.24 0.996l-0.008 0.102zM39.383 28.566c-0.216 0.121-0.389 0.287-0.518 0.505-0.127 0.211-0.208 0.462-0.224 0.731l-0 0.005h2.947c-0.016-0.274-0.088-0.518-0.222-0.733-0.13-0.211-0.306-0.382-0.516-0.501l-0.007-0.004c-0.216-0.123-0.459-0.182-0.73-0.182s-0.513 0.059-0.73 0.179z"></path>
</symbol>
<symbol id="icon-form-company" viewBox="0 0 32 32">
<path fill="#2874a6" style="fill: var(--color2, #2874a6)" d="M31.462 14.306l-14.357-13.084c-0.29-0.267-0.678-0.43-1.105-0.43s-0.815 0.164-1.106 0.431l0.001-0.001-14.357 13.084c-0.331 0.3-0.539 0.731-0.539 1.211 0 0.214 0.041 0.418 0.116 0.605l-0.004-0.011c0.241 0.618 0.832 1.047 1.522 1.047 0.003 0 0.007 0 0.010-0h2.293v13.109c0 0.518 0.42 0.939 0.941 0.939h7.87c0 0 0 0 0 0 0.519 0 0.94-0.42 0.941-0.939v-7.957h4.625v7.957c0 0.518 0.422 0.939 0.941 0.939h7.87c0 0 0 0 0 0 0.519 0 0.94-0.42 0.941-0.939v-13.109h2.293c0.683 0 1.284-0.41 1.53-1.045 0.071-0.177 0.113-0.382 0.113-0.596 0-0.479-0.207-0.911-0.536-1.209l-0.001-0.001zM27.819 2.671h-6.321l7.262 6.603v-5.662c-0.001-0.519-0.422-0.939-0.941-0.939 0 0 0 0 0 0v0z"></path>
</symbol>
<symbol id="icon-form-email" viewBox="0 0 32 32">
<path fill="#2874a6" style="fill: var(--color2, #2874a6)" d="M21.212 16.164l10.788 6.82v-13.931l-10.788 7.113zM0 9.056v13.929l10.788-6.82-10.788-7.108zM29.999 5.001h-28c-0.987 0.009-1.801 0.741-1.938 1.692l-0.001 0.011 15.94 10.5 15.94-10.5c-0.138-0.962-0.953-1.695-1.941-1.702h-0.001zM19.379 17.372l-2.829 1.865c-0.155 0.104-0.345 0.165-0.55 0.165s-0.396-0.062-0.554-0.168l0.004 0.002-2.829-1.867-12.557 7.942c0.143 0.955 0.954 1.68 1.936 1.687h27.999c0.982-0.007 1.793-0.731 1.936-1.674l0.001-0.011-12.557-7.945z"></path>
</symbol>
<symbol id="icon-form-message" viewBox="0 0 32 32">
<path fill="#2874a6" style="fill: var(--color2, #2874a6)" d="M4.659 30.089h-2.27l1.604-1.604c0.864-0.864 1.404-1.988 1.549-3.209-3.699-2.428-5.542-5.948-5.542-9.638 0-6.805 6.257-13.724 16.053-13.724 10.381 0 15.947 6.364 15.947 13.126 0 6.805-5.626 13.167-15.947 13.167-1.807 0-3.693-0.241-5.378-0.683-1.524 1.574-3.655 2.553-6.015 2.56h-0.001z"></path>
</symbol>
<symbol id="icon-form-phone" viewBox="0 0 32 32">
<path fill="#2874a6" style="fill: var(--color2, #2874a6)" d="M31.13 23.484l-4.467-4.465c-1.594-1.594-4.305-0.956-4.943 1.118-0.48 1.434-2.074 2.231-3.509 1.914-3.189-0.798-7.497-4.945-8.294-8.294-0.478-1.436 0.48-3.029 1.916-3.509 2.071-0.638 2.709-3.349 1.116-4.943l-4.465-4.467c-1.276-1.114-3.191-1.114-4.307 0l-3.029 3.029c-3.029 3.194 0.32 11.644 7.814 19.142 7.497 7.497 15.949 11.006 19.138 7.814l3.029-3.029c1.118-1.276 1.118-3.189 0-4.305z"></path>
</symbol>
<symbol id="icon-form-name" viewBox="0 0 32 32">
<path fill="#2874a6" style="fill: var(--color2, #2874a6)" d="M16 0c-4.657 0.006-8.431 3.78-8.437 8.437v0.001c0.006 4.657 3.78 8.431 8.437 8.437h0.001c4.657-0.006 8.431-3.78 8.437-8.437v-0.001c-0.006-4.657-3.78-8.431-8.437-8.437h-0.001zM26.496 22.387c-2.187-2.245-5.24-3.637-8.618-3.637-0 0-0.001 0-0.001 0h-3.755c-3.251 0-6.315 1.293-8.623 3.637-2.199 2.221-3.558 5.277-3.558 8.652 0 0.008 0 0.016 0 0.024v-0.001c0 0.518 0.418 0.939 0.937 0.939h26.249c0.518 0 0.939-0.42 0.939-0.939v0c0-0.005 0-0.010 0-0.016 0-3.377-1.362-6.437-3.566-8.659l0.001 0.001z"></path>
</symbol>
<symbol id="icon-logo-about" viewBox="0 0 28 32">
<path fill="#2874a6" style="fill: var(--color2, #2874a6)" d="M27.178 7.671l-13.107 7.672-2.639-1.535 10.486-6.138-2.639-1.534-10.486 6.137-7.916-4.603 13.107-7.671 2.639 1.534-10.486 6.137 2.639 1.534 10.486-6.137 7.916 4.603z"></path>
<path fill="#1b4f72" style="fill: var(--color3, #1b4f72)" d="M13.151 16.829l-0.008 3.034-10.486-6.098-0.008 3.034 10.486 6.098-0.026 9.103-13.108-7.623 0.009-3.034 10.486 6.098 0.009-3.035-10.487-6.098 0.026-9.103 13.108 7.623z"></path>
<path fill="#5dade2" style="fill: var(--color4, #5dade2)" d="M28.012 9.206l0.008 3.034-10.486 6.098 0.009 3.035 10.486-6.098 0.026 9.103-13.108 7.623-0.009-3.035 10.487-6.098-0.009-3.035-10.487 6.099-0.025-9.103 13.108-7.623z"></path>
</symbol>
<symbol id="icon-logo-hero" viewBox="0 0 28 32">
<path fill="#fff" style="fill: var(--color1, #fff)" d="M27.011 7.662l-13.079 7.663-2.633-1.533 10.463-6.13-2.633-1.532-10.463 6.13-7.899-4.597 13.079-7.662 2.633 1.532-10.464 6.13 2.633 1.533 10.463-6.13 7.899 4.598zM13.218 16.691l-0.009 3.060-10.54-6.15-0.009 3.060 10.54 6.15-0.026 9.18-13.175-7.687 0.009-3.060 10.54 6.15 0.009-3.060-10.54-6.15 0.026-9.18 13.175 7.688zM28.117 9.004l0.009 3.060-10.54 6.15 0.009 3.060 10.54-6.15 0.026 9.18-13.175 7.688-0.009-3.060 10.54-6.15-0.009-3.060-10.54 6.15-0.026-9.18 13.175-7.687z"></path>
</symbol>
<symbol id="icon-logo-header" viewBox="0 0 108 32">
<path fill="#2874a6" style="fill: var(--color2, #2874a6)" d="M27.123 7.666l-13.104 7.666-2.639-1.534 10.483-6.133-2.639-1.534-10.484 6.133-7.913-4.599 13.105-7.666 2.638 1.534-10.485 6.133 2.639 1.533 10.484-6.133 7.915 4.6z"></path>
<path fill="#1b4f72" style="fill: var(--color3, #1b4f72)" d="M13.233 16.718l-0.008 3.051-10.553-6.133-0.008 3.051 10.553 6.133-0.026 9.154-13.191-7.666 0.008-3.051 10.553 6.133 0.008-3.051-10.553-6.133 0.026-9.154 13.191 7.665z"></path>
<path fill="#5dade2" style="fill: var(--color4, #5dade2)" d="M28.135 9.078l0.008 3.051-10.553 6.133 0.008 3.051 10.553-6.133 0.026 9.154-13.191 7.666-0.008-3.051 10.552-6.132-0.008-3.051-10.553 6.133-0.025-9.154 13.191-7.665z"></path>
<path fill="#1b4f72" style="fill: var(--color3, #1b4f72)" d="M39.149 21.246c-0.64-0.187-1.153-0.43-1.541-0.729l0.68-1.52c0.404 0.29 0.851 0.513 1.326 0.66 0.495 0.164 1.013 0.248 1.534 0.249 0.569 0 0.99-0.085 1.262-0.255s0.408-0.397 0.409-0.679c0-0.003 0-0.007 0-0.010 0-0.204-0.094-0.386-0.24-0.506l-0.001-0.001c-0.175-0.143-0.381-0.256-0.606-0.327l-0.013-0.003c-0.247-0.084-0.589-0.178-0.936-0.258l-0.084-0.016c-0.661-0.157-1.201-0.315-1.621-0.473-0.432-0.165-0.796-0.425-1.080-0.756l-0.003-0.004c-0.302-0.348-0.453-0.813-0.453-1.392-0-0.008-0-0.017-0-0.027 0-0.503 0.152-0.97 0.413-1.359l-0.006 0.009c0.272-0.411 0.682-0.737 1.232-0.978 0.548-0.24 1.218-0.36 2.011-0.36 0.546-0.001 1.090 0.066 1.621 0.199 0.489 0.117 0.956 0.31 1.386 0.573l-0.619 1.53c-0.8-0.457-1.6-0.686-2.401-0.686-0.562 0-0.976 0.091-1.244 0.275s-0.401 0.424-0.401 0.722c0 0.299 0.155 0.522 0.464 0.667s0.781 0.29 1.417 0.432c0.659 0.157 1.2 0.315 1.621 0.473 0.431 0.163 0.794 0.418 1.081 0.743l0.003 0.003c0.301 0.34 0.452 0.801 0.452 1.383 0 0.005 0 0.011 0 0.017 0 0.503-0.155 0.969-0.42 1.354l0.005-0.008c-0.276 0.411-0.691 0.737-1.244 0.978-0.552 0.24-1.225 0.36-2.017 0.361-0.006 0-0.013 0-0.020 0-0.701 0-1.378-0.103-2.017-0.294l0.050 0.013zM51.381 17.061c0.405 0.445 0.606 0.995 0.606 1.65 0 0.005 0 0.011 0 0.017 0 0.512-0.148 0.991-0.402 1.394l0.006-0.011c-0.263 0.429-0.665 0.771-1.206 1.028s-1.203 0.386-1.986 0.386c-0.608 0-1.214-0.082-1.8-0.243-0.59-0.162-1.090-0.392-1.503-0.691l0.78-1.544c0.327 0.246 0.707 0.443 1.117 0.572l0.027 0.007c0.396 0.13 0.852 0.205 1.326 0.205 0.002 0 0.003 0 0.005 0h-0c0.502 0 0.898-0.098 1.188-0.293s0.434-0.471 0.433-0.828c0-0.714-0.54-1.071-1.621-1.071h-0.916v-1.334l1.782-2.030h-3.687v-1.618h6.063v1.308l-1.956 2.24c0.759 0.126 1.34 0.411 1.746 0.855z"></path>
<path fill="#000" style="fill: var(--color5, #000)" d="M56.936 13.15c-0.092-0.086-0.149-0.209-0.149-0.344 0-0.003 0-0.006 0-0.009v0c0-0.135 0.054-0.266 0.149-0.361 0.092-0.092 0.218-0.149 0.358-0.149 0 0 0 0 0 0v0c0.003-0 0.006-0 0.009-0 0.136 0 0.259 0.055 0.349 0.143l-0-0c0.092 0.086 0.149 0.208 0.149 0.343 0 0.004-0 0.008-0 0.012v-0.001c0 0 0 0.001 0 0.001 0 0.14-0.056 0.268-0.148 0.36l0-0c-0.092 0.092-0.218 0.149-0.358 0.149-0 0-0 0-0 0v0c-0.003 0-0.006 0-0.009 0-0.137 0-0.26-0.055-0.35-0.145v0zM56.985 14.877h0.619v6.5h-0.619v-6.5zM65.287 15.535c0.47 0.473 0.705 1.155 0.705 2.044v3.799h-0.618v-3.751c0-0.731-0.184-1.287-0.551-1.669s-0.88-0.573-1.541-0.573c-0.759 0-1.357 0.228-1.793 0.685s-0.655 1.072-0.656 1.845v3.463h-0.619v-6.503h0.594v1.408c0.221-0.454 0.563-0.82 0.984-1.065l0.012-0.006c0.441-0.257 0.964-0.386 1.566-0.386 0.807 0 1.447 0.237 1.916 0.71zM73.615 15.535c0.47 0.473 0.705 1.155 0.705 2.044v3.799h-0.619v-3.751c0-0.731-0.184-1.287-0.551-1.669s-0.88-0.573-1.54-0.573c-0.759 0-1.357 0.228-1.794 0.685s-0.655 1.072-0.656 1.845v3.463h-0.618v-6.503h0.594v1.408c0.221-0.454 0.563-0.82 0.984-1.065l0.012-0.006c0.442-0.257 0.964-0.386 1.565-0.386 0.808 0 1.447 0.237 1.918 0.71zM77.753 21.002c-0.489-0.283-0.882-0.682-1.148-1.162l-0.008-0.015c-0.281-0.502-0.421-1.069-0.421-1.7 0-0.63 0.14-1.197 0.42-1.7 0.275-0.495 0.668-0.894 1.142-1.17l0.015-0.008c0.491-0.283 1.041-0.424 1.652-0.424s1.162 0.141 1.652 0.424c0.489 0.283 0.882 0.683 1.149 1.162l0.008 0.015c0.28 0.502 0.421 1.069 0.421 1.7s-0.14 1.198-0.421 1.7c-0.275 0.495-0.668 0.894-1.142 1.17l-0.015 0.008c-0.491 0.283-1.041 0.424-1.652 0.424s-1.16-0.141-1.651-0.424zM80.736 20.517c0.393-0.236 0.708-0.566 0.921-0.959l0.007-0.013c0.227-0.415 0.341-0.888 0.341-1.42s-0.114-1.005-0.341-1.419c-0.219-0.405-0.534-0.734-0.916-0.964l-0.011-0.006c-0.392-0.232-0.836-0.348-1.33-0.348s-0.938 0.116-1.331 0.348c-0.393 0.236-0.709 0.565-0.922 0.958l-0.007 0.013c-0.227 0.415-0.34 0.888-0.34 1.419s0.113 1.005 0.34 1.42c0.22 0.406 0.535 0.736 0.917 0.966l0.011 0.006c0.391 0.232 0.834 0.348 1.33 0.348s0.939-0.117 1.331-0.35h-0.001zM89.552 14.875l-2.92 6.502h-0.632l-2.908-6.502h0.656l2.573 5.817 2.599-5.817h0.633zM94.724 15.441c0.429 0.411 0.643 1.015 0.644 1.813v4.123h-0.594v-1.159c-0.209 0.382-0.517 0.687-0.892 0.885l-0.012 0.006c-0.395 0.211-0.87 0.318-1.423 0.318-0.718 0-1.285-0.17-1.701-0.51s-0.624-0.789-0.624-1.345c0-0.539 0.192-0.977 0.575-1.314s0.996-0.504 1.837-0.504h2.215v-0.524c0-0.606-0.163-1.067-0.489-1.383s-0.802-0.473-1.429-0.473c-0.003 0-0.007-0-0.011-0-0.439 0-0.858 0.082-1.244 0.233l0.023-0.008c-0.385 0.143-0.716 0.346-0.999 0.6l0.003-0.003-0.309-0.449c0.326-0.29 0.713-0.521 1.138-0.671l0.024-0.007c0.42-0.154 0.905-0.243 1.41-0.243 0.004 0 0.009 0 0.013 0h-0.001c0.8 0 1.415 0.205 1.844 0.616zM93.901 20.543c0.375-0.25 0.657-0.611 0.848-1.084v-1.222h-2.203c-0.635 0-1.095 0.116-1.38 0.349s-0.427 0.552-0.429 0.959c0 0.423 0.156 0.758 0.47 1.002 0.313 0.246 0.755 0.368 1.326 0.368 0.537 0 0.993-0.125 1.368-0.374v0.001zM101.121 20.965c-0.163 0.151-0.359 0.269-0.576 0.339l-0.011 0.003c-0.238 0.079-0.486 0.119-0.736 0.118-0.561 0-0.995-0.156-1.299-0.467s-0.458-0.744-0.458-1.299v-4.249h-1.188v-0.536h1.188v-1.42h0.618v1.42h2.054v0.536h-2.054v4.185c0 0.424 0.101 0.745 0.303 0.965s0.501 0.33 0.897 0.33c0.404 0 0.738-0.121 1.002-0.361l0.26 0.436zM108.065 18.275h-5.557c0.016 0.507 0.144 0.957 0.383 1.351 0.236 0.39 0.566 0.701 0.958 0.909l0.013 0.006c0.408 0.216 0.868 0.324 1.38 0.324 0.008 0 0.018 0 0.028 0 0.412 0 0.805-0.085 1.161-0.238l-0.019 0.007c0.36-0.154 0.661-0.385 0.893-0.674l0.003-0.004 0.359 0.411c-0.281 0.338-0.635 0.605-1.040 0.778l-0.018 0.007c-0.398 0.174-0.863 0.275-1.351 0.275-0.010 0-0.020-0-0.031-0h0.002c-0.644 0-1.217-0.141-1.72-0.424-0.497-0.279-0.899-0.676-1.174-1.156l-0.008-0.015c-0.286-0.497-0.429-1.066-0.429-1.706 0-0.631 0.134-1.197 0.403-1.7 0.259-0.492 0.636-0.891 1.094-1.17l0.013-0.007c0.47-0.282 0.998-0.423 1.584-0.423s1.112 0.139 1.578 0.417c0.469 0.283 0.845 0.677 1.097 1.148l0.008 0.016c0.269 0.497 0.403 1.061 0.403 1.694l-0.013 0.174zM103.771 15.679c-0.365 0.207-0.66 0.498-0.867 0.848l-0.006 0.011c-0.212 0.359-0.349 0.787-0.377 1.244l-0 0.008h4.952c-0.019-0.462-0.155-0.889-0.378-1.257l0.007 0.012c-0.22-0.365-0.524-0.659-0.885-0.863l-0.012-0.006c-0.335-0.19-0.735-0.302-1.162-0.302-0.016 0-0.033 0-0.049 0.001l0.002-0c-0.011-0-0.025-0-0.038-0-0.436 0-0.845 0.113-1.2 0.312l0.012-0.006h0.001z"></path>
</symbol>
</defs>
</svg>
